<svg width="971" height="420" viewBox="0 0 971 420" fill="none" xmlns="http://www.w3.org/2000/svg">
<path d="M0 413.858C12.3858 301.658 12.3858 188.426 0 76.2098H72.1489V211.726H113.536V76.2098H186.21C173.824 188.409 173.824 301.641 186.21 413.858H113.536V270.135H72.1489V413.858H0Z" fill="#F4F1D8" fill-opacity="0.24"/>
<path d="M512.42 420C484.839 420 462.995 414.653 447.614 403.926C432.183 393.198 423.063 378.308 419.475 359.222C415.871 340.135 418.122 318.291 425.262 293.706C446.937 290.795 468.528 287.902 490.085 284.992C487.97 299.002 486.87 312.318 486.87 324.941C486.87 337.563 488.849 347.8 492.944 355.634C497.039 363.486 504.095 367.394 514.027 367.394C529.306 367.394 536.7 356.497 536.345 334.653C536.159 321.015 533.367 309.492 528.037 300.101C522.69 290.711 516.159 282.606 508.393 275.77C500.609 268.934 492.538 262.623 484.112 256.819C474.01 249.645 464.078 241.624 454.247 232.741C444.416 223.858 436.294 213.266 429.712 200.981C423.13 188.68 419.425 173.841 418.443 156.43C417.039 131.184 423.266 110.491 438.849 94.3147C454.349 78.1557 478.629 70.0676 510.711 70.0676C546.548 70.0676 572.2 80.1861 586.616 100.44C601.151 120.694 604.349 148.393 599.002 183.553C577.563 186.277 556.193 189.019 534.89 191.743C536.328 181.167 536.802 170.744 536.244 160.508C535.685 150.271 533.384 141.76 529.255 134.924C525.127 128.105 518.951 124.704 510.812 124.704C503.723 124.704 498.257 127.259 494.467 132.369C490.66 137.479 488.866 144.467 489.002 153.35C489.222 167.682 493.892 179.036 502.961 187.394C512.03 195.77 521.777 203.367 532.233 210.186C545.059 218.731 556.971 228.206 568.071 238.612C579.171 249.036 588.206 261.421 595.381 275.753C602.555 290.102 606.582 307.513 607.648 327.986C608.579 345.736 606.498 361.506 600.931 375.296C595.347 389.086 585.533 400 571.1 407.986C556.701 415.973 536.954 419.983 512.352 419.983L512.42 420Z" fill="#F4F1D8" fill-opacity="0.24"/>
<path d="M765.635 335.262C746.261 348.443 715.144 352.453 700.829 353.638C694.298 261.235 696.092 168.393 706.261 76.2267H621.049C633.435 188.426 633.435 301.658 621.049 413.875H769.408C767.885 393.976 766.616 355.211 765.635 335.262Z" fill="#F4F1D8" fill-opacity="0.24"/>
<path d="M372.656 0C348.612 0 324.568 0 300.524 0C292.199 18.0203 284.314 36.0575 276.7 54.1286C286.243 54.1286 322.893 54.1286 331.692 54.1286C344.636 36.0744 358.206 18.0203 372.656 0Z" fill="#F4F1D8" fill-opacity="0.24"/>
<path d="M349.238 76.1083H258.883C245.042 188.612 230.643 301.658 199.492 413.875H273.164C275.888 393.638 278.392 373.384 280.727 353.113H327.394C329.729 373.384 332.216 393.655 334.957 413.875H408.629C377.479 301.675 363.079 188.629 349.238 76.1083ZM286.193 306.041C292.436 247.53 297.597 188.9 303.113 130.355H305.042C310.558 188.9 315.719 247.53 321.963 306.041H286.193Z" fill="#F4F1D8" fill-opacity="0.24"/>
<path d="M953.164 113.739C940.085 84.6024 912.758 70.0846 872.149 70.0846C831.54 70.0846 804.23 84.6024 791.134 113.739C777.8 142.86 773.875 187.14 773.841 246.582C773.807 283.469 775.584 314.805 780.626 340.558C785.635 366.311 794.992 385.99 809.696 399.594C824.129 413.029 845.212 419.78 872.149 419.966C899.086 419.78 920.169 413.012 934.602 399.594C949.306 385.99 958.663 366.311 963.672 340.558C968.697 314.805 970.474 283.469 970.457 246.582C970.423 187.14 966.498 142.86 953.164 113.739ZM894.332 338.003C890.575 355.905 883.35 364.856 872.724 364.856C872.521 364.856 872.335 364.822 872.149 364.822C871.946 364.822 871.76 364.856 871.574 364.856C860.964 364.856 853.723 355.905 849.966 338.003C846.193 320.101 844.704 289.289 844.721 245.567C844.721 207.648 846.125 178.206 849.509 157.225C852.86 136.244 860.423 125.77 872.098 125.77C872.115 125.77 872.132 125.77 872.149 125.77C872.166 125.77 872.183 125.77 872.2 125.77C883.875 125.77 891.438 136.244 894.789 157.225C898.173 178.206 899.577 207.665 899.577 245.567C899.577 289.289 898.105 320.101 894.332 338.003Z" fill="#F4F1D8" fill-opacity="0.24"/>
</svg>
