<svg width="65" height="85" viewBox="0 0 65 85" fill="none" xmlns="http://www.w3.org/2000/svg">
<path d="M23.678 47.7115C23.8655 47.7115 24.0837 47.6503 24.3325 47.524C25.3085 47.0226 26.2769 46.4063 27.3946 45.5872L27.9956 45.1202C28.7611 44.5231 29.5534 43.903 30.4567 43.4552C31.0883 43.1528 31.3601 42.8313 31.3409 42.4026C31.318 42.1385 31.2797 41.8629 31.2376 41.5911C31.1457 40.971 31.05 40.328 31.1649 39.6926C31.3448 38.4142 32.1562 37.197 33.2318 36.5922C33.7141 36.3166 34.2538 36.2822 34.671 36.2822C34.8777 36.2822 35.092 36.2936 35.3026 36.3013L35.804 36.3204C36.382 36.309 36.9982 35.7233 37.0441 35.1339C37.0671 34.9195 37.0059 34.686 36.9408 34.4411C36.8757 34.1999 36.8106 33.9511 36.8183 33.6947C36.8221 33.1971 37.0365 32.7416 37.4384 32.3665C38.4604 31.578 39.6393 31.0268 40.7838 30.4986C41.289 30.2651 41.7904 30.0316 42.2804 29.7751C42.8124 29.4995 43.4325 29.1895 44.0832 28.9981C44.5463 28.8642 45.0401 28.8029 45.5377 28.7417C46.3836 28.6383 47.2602 28.5273 47.9644 28.0182C48.462 27.6623 48.8065 27.2183 49.1395 26.7896C49.6677 26.1082 50.2151 25.4078 51.3404 25.1284C51.8648 24.9676 52.3816 24.7494 52.8945 24.5351C53.3346 24.3513 53.7672 24.1676 54.2035 24.0222C54.5021 23.9227 54.6667 23.804 54.682 23.6777C54.7203 23.3944 54.0849 22.9772 53.8476 22.8203C52.8256 22.1504 51.8916 21.2509 51.0802 20.1448L50.6859 19.6204C50.1577 18.9008 49.6142 18.162 48.8333 17.7257C48.397 17.4769 47.8841 17.3467 47.3903 17.2166C46.9922 17.1171 46.598 17.0137 46.2267 16.853C45.7903 16.6769 45.3846 16.4396 44.9789 16.1984C44.665 16.0147 44.3473 15.831 44.0181 15.674C42.8775 15.119 41.5569 15.0578 40.2785 15.0004L40.0182 14.9851C39.356 14.9544 38.6939 14.9238 38.0355 14.9238C37.5724 14.9238 37.1092 14.9391 36.6461 14.9812C35.4136 15.0348 34.2882 15.5516 33.4768 16.4281C32.0758 17.8099 30.8012 19.5744 29.4615 21.9859C28.8376 23.0117 28.4931 24.1676 28.1601 25.2853C28.0645 25.6068 27.9688 25.9322 27.8616 26.2537C27.7506 26.602 27.6204 26.9427 27.4941 27.2872C27.3755 27.6125 27.253 27.9379 27.142 28.2709C26.9047 28.8833 26.8587 29.5455 26.8128 30.1885C26.763 30.9196 26.7095 31.6737 26.3803 32.3665C26.0702 33.0554 25.6607 33.7215 25.2664 34.3645C24.5775 35.486 23.8617 36.642 23.6818 37.9663C23.655 38.2266 23.6397 38.4907 23.6282 38.7548C23.6091 39.1338 23.5937 39.5089 23.5325 39.884C23.4483 40.4045 23.3182 40.9174 23.188 41.4265C22.9392 42.4064 22.7057 43.3327 22.7708 44.3049V44.6379C22.7861 45.4494 22.7976 46.2915 23.0311 47.0876C23.1344 47.5087 23.3449 47.7115 23.678 47.7115Z" fill="#402312"/>
<path d="M50.3375 66.4556C50.0772 66.3599 49.9739 65.9656 49.882 65.6135C49.8552 65.5063 49.8284 65.4068 49.8016 65.3226C49.6677 64.8556 49.5758 64.3695 49.4878 63.8872C49.3538 63.1485 49.2122 62.3829 48.906 61.6863C48.5117 60.9016 48.1519 60.1246 48.0486 59.2787C47.9835 58.7964 47.8725 58.3141 47.7615 57.8318C47.5969 57.1122 47.4285 56.3659 47.4055 55.5927C47.3251 54.2262 47.172 53.1009 46.927 52.0521C46.8505 51.7382 46.7548 51.4282 46.6629 51.1143C46.4677 50.4674 46.2687 49.7976 46.2266 49.1316L46.2151 48.7029C46.1807 47.4895 46.15 46.2379 45.6371 45.1011C45.5185 44.8369 45.3692 44.592 45.2161 44.3432C45.1013 44.1556 44.9864 43.9681 44.8869 43.7729C44.5922 43.214 44.4391 42.571 44.2898 41.9509L44.1558 41.3997C43.8917 40.5768 44.2821 40.1289 44.8793 39.4629C45.0821 39.2218 45.2161 38.9309 45.3462 38.6515C45.4879 38.3452 45.6218 38.0543 45.8323 37.8476C46.0199 37.6601 46.2687 37.53 46.5328 37.4036C46.9615 37.1893 47.3672 36.9481 47.7768 36.7108C48.3433 36.3778 48.9327 36.0333 49.5605 35.7692C50.1193 35.5013 50.6131 35.1185 51.0877 34.7511C51.547 34.3913 52.0255 34.0238 52.5575 33.7597C53.1393 33.442 53.79 33.2659 54.4216 33.0975C54.7737 33.0018 55.1221 32.91 55.4551 32.7913C55.7996 32.6994 56.2474 32.4621 56.722 32.2057C57.4416 31.8191 58.2569 31.3789 58.8808 31.3789C59.1488 31.3789 59.3555 31.4631 59.5086 31.6162C59.7574 31.9454 59.9564 32.3167 60.1554 32.6841C60.3162 32.975 60.4731 33.2659 60.6492 33.5301L60.9018 33.9511C61.2425 34.5099 61.5985 35.0879 61.6253 35.7118C61.6367 35.9032 61.6253 36.0946 61.6176 36.2898C61.6061 36.5883 61.5946 36.8831 61.6406 37.174C61.7363 37.8476 62.0846 38.4333 62.341 38.816L62.4673 38.9998C62.9726 39.7309 63.4778 40.4543 64.0328 41.1509C64.3238 41.5145 64.63 41.9547 64.7333 42.4676C64.8213 43.0265 64.8481 43.5891 64.8788 44.1556C64.9017 44.6188 64.9247 45.0819 64.9783 45.5412C65.0395 45.9967 64.9706 46.345 64.7716 46.5709C64.5496 46.8273 64.163 46.9498 63.5927 46.9498C63.4166 46.9498 63.2329 46.9345 63.0415 46.9154C62.9343 46.9077 62.831 46.9039 62.7238 46.9039C62.3104 46.9039 61.897 46.9575 61.4875 47.0149C61.0932 47.0685 60.6951 47.1221 60.1899 47.1221H60.1707C59.8569 47.1144 59.6349 46.9957 59.5239 46.7776C59.3861 46.5058 59.4473 46.1154 59.6885 45.7709C59.8837 45.4188 60.2588 45.3575 60.6569 45.2924C60.9171 45.2465 61.1889 45.2006 61.4109 45.0666C61.5755 44.9633 61.675 44.791 61.6827 44.592C61.6942 44.3661 61.587 44.1403 61.4071 43.9987C61.1851 43.8303 60.9133 43.7461 60.5994 43.7461C59.9296 43.7461 59.2712 44.1212 58.9153 44.4389C58.2952 44.9518 57.9316 45.8092 57.9966 46.6168C58.0464 47.2867 58.3794 47.834 58.9268 48.1594C59.298 48.4005 59.7688 48.5192 60.3545 48.5192C60.6913 48.5192 61.0281 48.4809 61.5028 48.4349C61.9085 48.4349 62.1956 48.7029 62.2989 49.1737C62.4405 49.7287 62.5477 50.299 62.609 50.8693C62.6549 51.1947 62.609 51.4358 62.4673 51.6081C62.1803 51.9564 61.5257 51.9947 60.8942 52.0291C60.454 52.0559 60.0444 52.0751 59.7344 52.1975L59.4741 52.2741C59.0148 52.4042 58.4981 52.5497 58.2493 52.9439C58.1612 53.1123 58.1651 53.2884 58.2607 53.4377C58.3871 53.6406 58.6626 53.7745 59.0301 53.7745H59.0416C59.2942 53.7669 59.543 53.7056 59.7841 53.6482L60.0062 53.5946C60.3774 53.5028 60.7564 53.4913 61.1583 53.476C61.4109 53.4645 61.6635 53.4568 61.9315 53.4262C62.0195 53.4186 62.1114 53.4109 62.2071 53.4109C62.4673 53.4109 62.6166 53.476 62.6932 53.6099C62.8884 54.0654 62.6472 54.5936 62.4176 55.1066C62.3219 55.3209 62.23 55.5238 62.1688 55.7152C61.9697 56.3123 62.0157 56.9477 62.0616 57.5639C62.0922 57.9773 62.1228 58.3945 62.0769 58.7964C62.0272 59.4012 61.7133 61.3686 59.7688 61.3686C58.9114 61.426 58.0579 61.5944 57.0818 61.893C56.3967 62.0538 55.8493 62.5399 55.5393 63.248C54.923 64.5417 53.6752 65.514 52.1939 65.847L51.9987 65.8929C51.7729 65.9465 51.5509 66.0001 51.3365 66.0766C51.1872 66.1264 51.0418 66.1991 50.904 66.268C50.7164 66.3637 50.5365 66.4517 50.4026 66.4517L50.349 66.4441L50.3375 66.4556ZM53.7518 45.4762C53.591 45.7211 53.5719 46.0465 53.6944 46.4752L53.8475 46.8733C54.2034 47.8034 54.5671 48.7603 54.0159 49.6407C52.4427 51.9717 52.8714 52.9439 53.9087 55.2903C54.0771 55.8262 54.0312 56.408 53.9891 56.9745C53.9585 57.4108 53.924 57.8625 53.9891 58.3065C54.058 58.6357 54.2991 58.8577 54.5938 58.8577L54.8312 58.8079C55.4168 58.5514 55.524 57.6558 55.5393 57.0969C55.5584 56.029 55.2637 55.1946 54.9766 54.387C54.5211 53.1047 54.1307 51.9947 55.2063 50.3105C55.5929 49.5909 56.0024 48.6455 55.6771 47.5814C55.4474 46.8771 55.191 46.0771 54.7967 45.457C54.6666 45.2848 54.4752 45.1853 54.2723 45.1853C54.0618 45.1853 53.8742 45.2924 53.7594 45.4762H53.7518ZM57.767 38.4983C57.9469 38.506 58.1229 38.5443 58.299 38.5787C58.4789 38.617 58.6626 38.6591 58.9076 38.6591H58.9306C59.1794 38.6285 59.3478 38.5481 59.4397 38.4065C59.5775 38.1998 59.52 37.9127 59.4473 37.6601C59.4052 37.4917 59.5086 37.3309 59.6119 37.1587C59.7076 37.0056 59.8071 36.8448 59.8033 36.6611C59.7727 36.4352 59.6425 36.1635 59.2062 36.1635C58.9306 36.1635 58.6167 36.2668 58.3182 36.3702C57.7785 36.508 57.3498 36.6726 56.9785 36.8831C56.6149 37.0553 55.6158 37.7558 55.5431 38.3146C55.5201 38.483 55.5814 38.6323 55.7268 38.751C55.7996 38.7931 55.8876 38.8122 55.9909 38.8122C56.1862 38.8122 56.4082 38.7433 56.6034 38.6782L56.7986 38.617C57.0971 38.529 57.3689 38.4869 57.6253 38.4869H57.767V38.4983Z" fill="#402312"/>
<path d="M15.3069 67.3474C16.1872 67.3474 18.0169 65.9886 18.4609 65.602C19.3795 64.7523 20.3785 63.8795 21.6455 63.4394C22.1584 63.2059 22.6943 63.0107 23.234 62.8155C23.7698 62.6202 24.3019 62.425 24.8186 62.1916C25.7028 61.7437 26.4875 61.0892 27.2453 60.4576C27.785 60.006 28.3247 59.5581 28.9027 59.1715C29.5266 58.8156 30.0434 58.6471 30.4759 58.6471C31.5744 58.6471 32.0337 59.7648 32.317 60.7409C32.5849 61.5447 33.1935 61.9389 34.1734 61.9389C34.3724 61.9389 34.5791 61.9236 34.7897 61.8968L35.1227 61.8585C35.8384 61.7782 36.4317 61.7093 36.9676 61.7093C38.3379 61.7093 39.2489 62.1762 40.4584 63.493L40.6766 63.7035C41.1512 64.1705 41.8057 64.8097 42.3378 64.8097C42.5866 64.7255 42.6287 64.4154 42.6555 63.9867C42.6631 63.8681 42.6708 63.7494 42.6899 63.6537L42.7435 63.1714C42.8239 62.4671 42.9043 61.7437 43.0842 61.0394C43.4057 60.0902 43.1837 59.1294 42.9502 58.2988C42.8009 57.6328 42.8354 56.9553 42.8622 56.3046C42.8737 56.0405 42.889 55.7802 42.889 55.5199C42.9005 54.3908 42.5445 53.2387 41.8823 52.2243L41.733 51.9755C41.5646 51.6885 41.3885 51.3899 41.1129 51.2483C41.0249 51.2062 40.9254 51.187 40.8106 51.187C40.6154 51.187 40.4087 51.2483 40.2058 51.3057L40.0029 51.3631C39.7197 51.4358 39.4211 51.4703 39.1149 51.4703C37.8441 51.4703 36.6576 50.8846 36.0183 49.9392C35.7236 49.4876 35.5437 48.9785 35.3676 48.4847C35.1762 47.945 34.9772 47.3862 34.6289 46.9192C34.3763 46.5556 34.0241 46.257 33.6835 45.9661C33.3734 45.702 33.0481 45.4302 32.7954 45.1049C32.516 44.703 32.2098 44.3394 31.8156 44.3394C31.716 44.3394 31.6127 44.3623 31.5055 44.4121C30.3725 44.9556 29.3467 45.7403 28.3554 46.4982C27.2683 47.3288 26.1468 48.1862 24.8607 48.7526C24.3784 49.0091 23.8426 49.0512 23.3258 49.0857C23.077 49.1048 22.8282 49.1201 22.5871 49.1622C22.2809 49.2311 21.9785 49.434 21.6417 49.8014C20.9374 50.5516 20.3632 51.3937 19.9383 52.0444C19.7699 52.3047 19.5939 52.565 19.4178 52.8253C19.0886 53.3076 18.7594 53.7898 18.4991 54.3028C17.814 55.7955 17.2552 57.3343 16.8341 58.8691C16.5662 59.9677 16.2906 61.0662 16.015 62.1686C15.6246 63.7226 15.2342 65.2766 14.8667 66.823C14.8667 67.0067 14.905 67.156 14.9854 67.2441C15.0543 67.3168 15.1576 67.3512 15.2992 67.3512L15.3069 67.3474Z" fill="#402312"/>
<path d="M29.4539 18.526C29.7218 18.526 29.9553 18.4571 30.1658 18.3193C30.5448 17.925 30.916 17.4695 31.2988 17.0179C32.294 15.816 33.3236 14.5758 34.8088 14.0208C35.18 13.8945 35.5781 13.7605 35.6432 13.55C35.6738 13.4581 35.6355 13.3433 35.536 13.2055C34.8202 12.3098 34.1734 11.6974 33.4921 11.2802C32.96 10.9663 32.294 10.8209 31.6471 10.6793C30.4912 10.4266 29.2969 10.1702 28.7458 8.93002C28.6386 8.7195 28.5505 8.48984 28.4549 8.25635C28.2367 7.709 28.0147 7.14633 27.5592 6.79801C27.1535 6.45735 26.6061 6.35783 26.0319 6.25449C25.676 6.19324 25.3238 6.12817 25.0061 6.00569C24.5162 5.83344 24.0722 5.51192 23.6818 5.06409C23.3794 4.72725 23.0387 4.46697 22.6981 4.20669L22.3842 3.96555L22.0282 3.65168C21.7603 3.41054 21.4923 3.16939 21.1823 2.97801C19.8847 2.14358 18.4608 1.60005 17.1173 1.11394C16.2714 0.80773 15.414 0.643141 14.637 0.643141H14.3729C13.7949 0.639313 13.7069 0.784764 13.6916 0.826868C13.6533 0.941698 13.8141 1.19815 14.2581 1.50054C14.9892 2.02875 15.747 2.57611 16.5662 3.02777C16.8571 3.20002 17.1824 3.38757 17.3623 3.6823C17.4886 3.86986 17.5154 4.09569 17.4274 4.28707C17.3432 4.4708 17.1671 4.59711 16.9374 4.62773H16.8647C16.4322 4.62773 16.1375 4.51673 15.8772 4.41721C14.1815 3.74354 12.8954 3.44116 11.6246 3.40671L11.4103 3.39905C10.6027 3.39905 9.99024 3.7244 9.6802 4.31769C9.28978 5.06791 9.4314 6.11669 10.0477 7.00088C10.4534 7.74344 11.0275 8.34439 11.7548 8.80371C13.0638 9.67258 14.4724 10.4419 15.8312 11.1883C17.037 11.8467 18.2848 12.5318 19.4637 13.2821C19.9421 13.5768 20.3747 13.9443 20.7881 14.304C21.1364 14.6064 21.4809 14.905 21.8598 15.1614C22.7631 15.7126 23.7468 16.1911 24.6999 16.6542L25.0444 16.8226C25.3659 16.9681 25.6951 17.1021 26.0205 17.2399C26.476 17.4312 26.9353 17.6226 27.3831 17.837C27.54 17.8982 27.7085 17.9748 27.8884 18.0552C28.3821 18.281 28.9448 18.5336 29.4539 18.5336V18.526Z" fill="#402312"/>
<path d="M10.9623 31.0765C11.7737 31.0765 12.5929 30.9311 13.2818 30.7933C13.9555 30.7053 14.6292 30.6632 15.3028 30.6632C15.7507 30.6632 16.1947 30.6823 16.6387 30.7244C17.1095 30.778 17.5841 30.8239 18.0549 30.8239C18.342 30.8239 18.6252 30.8048 18.9123 30.7665C19.3831 30.7129 19.8463 30.6096 20.3056 30.51C20.9831 30.3608 21.6835 30.2115 22.3878 30.2115C22.4912 30.2115 22.5945 30.2153 22.7017 30.223C23.2031 30.2498 23.7045 30.3225 24.1983 30.4258L24.4777 30.4871C24.6653 30.533 24.8605 30.5789 25.0327 30.5789C25.182 30.5789 25.2968 30.5445 25.3925 30.4756C25.5878 30.2919 25.5992 29.9436 25.6145 29.6105C25.6184 29.5034 25.6222 29.4 25.6337 29.3043C25.6681 28.6039 25.9208 27.9455 26.1619 27.3101C26.2844 26.9886 26.4069 26.6671 26.4987 26.3379C26.625 26.0049 26.6442 25.7561 26.5561 25.5724C26.4145 25.2815 26.0126 25.1552 25.5801 25.0212C25.4155 24.9714 25.2509 24.9178 25.094 24.8566C24.8299 24.7647 24.5619 24.6652 24.294 24.5619C23.4213 24.2327 22.518 23.892 21.584 23.8461L21.3391 23.8384C20.9831 23.8384 20.6271 23.8844 20.2711 23.9303C19.9075 23.9762 19.5401 24.0222 19.1803 24.0222C18.8587 24.0222 18.5717 23.9839 18.3037 23.9112C17.6109 23.7198 17.0712 23.2031 16.6349 22.7935C16.0071 22.1275 15.3679 21.8327 14.5641 21.8327C14.0627 21.8327 13.5306 21.9438 13.0254 22.0624C12.4206 22.2232 11.8809 22.2997 11.3833 22.2997C10.6561 22.2997 10.0283 22.1351 9.46566 21.7983C9.3049 21.7103 9.14414 21.6146 8.97955 21.5112C8.73458 21.3619 8.48961 21.2127 8.23315 21.1017C7.80063 20.9103 7.32217 20.8414 6.85902 20.7763C6.63319 20.7457 6.41119 20.7151 6.18918 20.6691L5.9289 20.6194C5.66862 20.5658 5.40834 20.5122 5.14806 20.5122L4.94519 20.5237C3.65527 20.8605 0.849601 21.5954 0.585493 22.7782C0.493629 23.1992 0.742427 23.6547 1.32423 24.1332C2.76343 25.3925 4.39018 26.2575 6.02077 26.6365C6.18918 26.6824 6.36143 26.7168 6.54133 26.7475C7.06189 26.847 7.59776 26.9465 7.95756 27.3407C8.0877 27.49 8.14894 27.6699 8.12981 27.8651C8.10684 28.0986 7.97287 28.3283 7.77001 28.4814C7.63987 28.6154 7.37959 28.7455 7.10017 28.8833C6.63319 29.113 6.10115 29.3771 6.15856 29.7177C6.25043 29.9091 6.59492 30.0316 6.87433 30.1311L7.28772 30.2727C8.04943 30.5215 8.83792 30.7818 9.63408 30.9387C10.0628 31.0344 10.4953 31.0842 10.9699 31.0842L10.9623 31.0765Z" fill="#402312"/>
<path d="M1.73403 57.338C3.04692 57.338 4.03828 56.7945 4.99902 56.2663C6.36933 55.6653 7.61332 55.0797 8.4975 54.0003C8.66975 53.8012 8.83051 53.5946 8.9951 53.3879L9.35873 52.9324C9.86781 52.2817 10.4841 51.7152 11.0773 51.1716C11.8276 50.4865 12.6008 49.7745 13.1519 48.8942L13.4926 48.3315C13.6955 47.9947 13.8983 47.654 14.1318 47.3363C14.7404 46.3718 15.7586 45.9354 16.7423 45.5182C17.0638 45.3804 17.3853 45.2464 17.6877 45.0895C17.9939 44.9249 18.2887 44.7412 18.5872 44.5575C18.8398 44.4005 19.0925 44.2436 19.3489 44.0981C19.6857 43.8991 19.9958 43.746 20.2714 43.6082C21.1556 43.1757 21.6876 42.9154 22.0398 41.6102C22.3268 40.948 23.0541 38.5251 22.6369 37.8897C22.5756 37.794 22.4876 37.748 22.3728 37.748C21.9441 37.8667 21.6646 38.0504 21.3967 38.2265C21.1517 38.3873 20.9068 38.5442 20.6427 38.659C20.1221 38.8925 19.5786 39.0724 19.0389 39.2523C18.5566 39.4131 18.0743 39.5738 17.6073 39.7729L16.4858 40.2513C15.3452 40.7413 14.1701 41.2465 12.9682 41.6484C11.9615 41.97 10.8171 42.4063 9.93288 43.2025C9.45442 43.6044 9.05634 44.1288 8.67358 44.634C8.4554 44.9173 8.24488 45.2005 8.01522 45.4608C7.50614 46.0158 7.03534 46.6014 6.57219 47.1871C6.2545 47.589 5.93297 47.9909 5.60379 48.3813L4.97223 48.9784C4.28325 49.6329 3.59427 50.2913 2.84788 50.8846L2.61057 51.0568C2.24694 51.3171 1.868 51.585 1.5771 51.9295C1.22878 52.3352 1.02592 52.8175 0.792429 53.4032C0.712048 53.6175 0.620184 53.8242 0.52832 54.0309C0.271867 54.6089 0.0307247 55.1562 0.00775877 55.7725C-0.0305178 56.2854 0.072829 56.6758 0.317799 56.9399C0.570424 57.2117 0.972329 57.3457 1.5082 57.3457C1.5082 57.3457 1.72638 57.338 1.7302 57.338H1.73403Z" fill="#402312"/>
<path d="M26.7592 23.904C27.1037 23.904 27.3601 23.6744 27.5132 23.2189C27.7773 22.5222 28.1333 21.8715 28.4778 21.2438L28.7496 20.7424C28.8988 20.4515 29.0098 20.1606 28.8108 19.9883C28.7266 19.9118 28.6577 19.885 28.562 19.8429C27.7812 19.5405 27.0807 19.2266 26.3802 18.9127C25.8329 18.6678 25.2894 18.4228 24.7343 18.2008C24.1793 17.9558 23.6014 17.7912 23.0196 17.6267C22.2425 17.4047 21.4387 17.175 20.7191 16.7539L20.3746 16.6047C19.9727 16.4363 19.5555 16.264 19.2034 15.9233C18.6828 15.4219 18.1201 15.0927 17.5269 14.9358C16.7384 14.7062 15.8503 14.5798 14.7288 14.5377C14.1624 14.5109 13.592 14.465 13.0179 14.4152C12.2562 14.354 11.483 14.2889 10.7175 14.2736C9.81413 14.2315 8.91463 14.1626 8.01896 14.0976C7.16539 14.0363 6.31565 13.9712 5.46591 13.9291C5.31281 13.91 5.16736 13.9023 5.02191 13.9023C4.2602 13.9023 3.44108 14.1473 2.599 14.6296C1.85643 14.9741 1.44687 15.4296 1.40094 15.954C1.35118 16.5894 1.83729 17.3204 2.70617 17.9176C4.10327 18.8898 5.77595 19.196 7.39505 19.4907L8.34431 19.6706C8.7998 19.7931 9.21319 19.9998 9.62275 20.2027C10.2313 20.5089 10.8055 20.796 11.4639 20.796L11.6973 20.7883C12.283 20.7883 12.815 20.6696 13.3317 20.5548L13.8255 20.4476C14.0513 20.4055 14.2734 20.3864 14.4992 20.3864C15.5824 20.3864 16.6656 20.8495 17.4694 21.6572C17.8675 22.0514 18.5182 22.5222 19.3373 22.5222C19.4216 22.5222 19.5058 22.5184 19.5938 22.5069L20.0646 22.4686C20.4282 22.4342 20.788 22.4036 21.1517 22.4036C21.3048 22.4036 21.4579 22.4112 21.611 22.4227C22.6674 22.5222 23.6856 22.8935 24.6654 23.2571C25.2319 23.4638 25.7984 23.6744 26.3726 23.8313C26.518 23.881 26.6443 23.9078 26.7592 23.9078V23.904Z" fill="#402312"/>
<path d="M1.68019 43.7996C2.33472 43.7996 3.0237 43.5929 3.68589 43.39C3.93851 43.3135 4.19114 43.2369 4.43611 43.1718C5.84469 42.7125 7.24178 42.2111 8.63887 41.7058C10.2006 41.1432 11.7584 40.5805 13.3431 40.0791C14.3459 39.7537 15.322 39.3021 16.2712 38.8695C16.742 38.6514 17.2128 38.437 17.6913 38.2342C18.0013 38.1002 18.3267 37.993 18.6482 37.882C18.9927 37.7634 19.3372 37.6485 19.6664 37.5031C19.9381 37.3806 20.1946 37.2198 20.4472 37.0629C20.7611 36.8677 21.0749 36.6725 21.4156 36.5423C21.5649 36.4811 21.7218 36.4275 21.8826 36.3777C22.2539 36.2591 22.6022 36.1481 22.8663 35.8878C23.2988 35.3481 23.6663 34.6744 24.0261 34.0276C24.2404 33.641 24.4509 33.2544 24.6768 32.8946C24.7686 32.7223 24.9332 32.4276 24.8643 32.2094C24.738 31.9185 24.2749 31.8305 23.8653 31.7501L23.5476 31.6812C23.0309 31.5587 22.4797 31.4937 21.9055 31.4937C21.2625 31.4937 20.5888 31.5702 19.8424 31.7233C19.1075 31.8343 18.2425 31.9453 17.3468 31.9453C17.1554 31.9453 16.964 31.9415 16.7726 31.93C16.6463 31.9185 16.5238 31.9147 16.4014 31.9147C15.7086 31.9147 15.1 32.0716 14.5947 32.3817C14.1737 32.6152 13.7947 32.8907 13.412 33.1702C12.9067 33.5376 12.3823 33.9166 11.7814 34.1807C11.0005 34.5519 10.1508 34.7318 9.32403 34.9079L9.09437 34.9577C7.12312 35.3979 5.20929 36.4543 3.06581 38.2877C1.60747 39.3518 0.872559 40.6992 0.872559 42.3068C0.880214 43.0187 0.929973 43.6771 1.49647 43.7881H1.68019V43.7996Z" fill="#402312"/>
<path d="M2.29661 65.9315C4.44393 65.6981 6.59507 64.477 8.86487 62.1996C9.25147 61.79 9.74141 61.2771 10.3232 60.9403C10.7443 60.7068 11.2036 60.5384 11.6744 60.37C12.5126 60.0637 13.3777 59.7537 13.9518 59.0494C14.4954 58.4753 14.6791 57.7404 14.8705 56.9672C14.947 56.661 15.0236 56.3586 15.1193 56.0638C15.5135 54.973 16.3288 54.1462 17.1173 53.35C17.4159 53.0515 17.7106 52.7491 17.9824 52.439C18.3957 51.9721 18.7402 51.4477 19.0885 50.931C19.4062 50.4563 19.7278 49.9779 20.0914 49.5377C20.3287 49.2353 20.5966 48.9559 20.8646 48.6765C21.0636 48.4621 21.2665 48.2516 21.454 48.0334C21.8368 47.5818 21.7794 47.0382 21.6684 46.4296C21.6301 46.2612 21.611 46.0622 21.5957 45.867C21.565 45.4842 21.5344 45.0938 21.3048 44.8412C21.2627 44.8335 21.2206 44.8335 21.1823 44.8335C20.9373 44.8335 20.7689 44.9177 20.6311 44.9866L20.1565 45.2354C19.3718 45.6488 18.5603 46.0813 17.6915 46.3454L17.236 46.4947C16.7192 46.6555 16.1872 46.8239 15.7432 47.1263C15.0274 47.6468 14.6485 48.4353 14.2466 49.2697C13.9633 49.8592 13.6686 50.4678 13.2437 50.9654C12.7729 51.4974 12.2409 51.9682 11.7088 52.4352C11.4677 52.6496 11.2265 52.8601 10.9931 53.0783C10.4648 53.4878 9.99786 53.9548 9.52706 54.4256C9.05243 54.9002 8.57397 55.3787 8.04193 55.7921C7.72423 56.0371 7.37592 56.2476 7.03143 56.4543C6.62187 56.6992 6.21231 56.9442 5.86016 57.2542C5.52716 57.5413 5.19415 57.8935 4.81139 58.3643C3.47553 60.0408 2.56455 61.5604 1.94447 63.145C1.68802 63.9067 1.28229 65.1201 1.6574 65.6598C1.77605 65.8359 1.97509 65.9239 2.25451 65.9354H2.29279L2.29661 65.9315Z" fill="#402312"/>
<path d="M50.8545 84.2961C51.1492 84.2961 51.4478 84.2732 51.7387 84.254C52.5961 84.2425 53.0324 84.1201 53.2851 83.8483C53.4994 83.6186 53.5836 83.2627 53.5492 82.7651C53.4497 81.7086 52.9444 80.7364 52.4545 79.7986C52.2248 79.3585 51.999 78.9183 51.8076 78.4666C50.8966 76.4303 50.0622 74.2485 50.1158 72.0936C50.1387 70.7424 50.1158 69.4754 49.5875 68.3348C49.1359 67.4123 48.6689 66.421 48.4086 65.3684C48.2632 64.9282 48.179 64.4344 48.0909 63.9368C47.8842 62.7349 47.6622 61.491 46.5599 60.8862C46.2001 60.7254 45.6987 60.5034 45.2508 60.5034C45.0709 60.5034 44.9178 60.5379 44.7877 60.6106C44.6422 60.7025 44.5236 60.8709 44.4432 61.1158C44.1906 61.9273 44.1102 62.8038 44.0604 63.6306C43.9609 66.9262 44.2977 69.4563 45.1168 71.596C45.3618 72.239 45.7025 72.8514 46.0317 73.4409C46.1924 73.728 46.3494 74.015 46.5025 74.3021C47.1838 75.5231 47.49 76.9241 47.4977 78.8494C47.5933 79.9058 48.0259 83.4311 49.6335 84.1124C49.9703 84.2387 50.3646 84.3 50.8622 84.3L50.8545 84.2961Z" fill="#402312"/>
<path d="M45.9589 36.2401C46.4258 36.1061 46.8737 35.8267 47.3024 35.5588C47.6622 35.3367 48.0181 35.1109 48.4009 34.9578C49.0937 34.6784 49.687 34.2114 50.2611 33.7559L50.7319 33.3885C51.9415 32.3091 53.4955 31.9416 54.8543 31.6852C55.417 31.5512 55.9452 31.2794 56.4619 31.0192C56.8371 30.8278 57.2122 30.6402 57.6026 30.4948C57.683 30.4565 57.7863 30.422 57.8897 30.3838C58.215 30.2689 58.5557 30.1503 58.6054 29.8594C58.6169 29.6029 58.3834 29.3235 58.1767 29.0747C57.1969 27.9647 56.6074 27.1111 56.1672 26.2001C55.9452 25.7753 55.6964 25.293 55.2294 25.1973C55.1491 25.182 55.0649 25.1743 54.9806 25.1743C54.4869 25.1743 54.0008 25.4078 53.53 25.6298C53.3348 25.7217 53.1395 25.8135 52.9482 25.8901C52.6955 26.0049 52.4199 26.1044 52.1482 26.204C51.5664 26.4107 51.0152 26.6097 50.5788 27.0001C50.3262 27.2259 50.1119 27.49 49.9013 27.7542L49.6832 28.0221C48.9942 28.8795 48.0794 29.4919 47.1148 29.7484C46.7014 29.8632 46.2727 29.9283 45.844 29.9972C45.2852 30.0852 44.711 30.1771 44.1828 30.3723C43.6355 30.5943 43.1149 30.866 42.5943 31.1416C42.0776 31.4096 41.5609 31.6813 41.0174 31.9033C40.3054 32.244 39.6049 32.6191 38.916 33.0095C38.5944 33.1933 38.2193 33.4535 38.2002 33.798C38.2308 34.1272 38.3801 34.2612 38.7054 34.2612C38.9428 34.2612 39.2298 34.1885 39.5093 34.1196C39.7695 34.0545 40.0222 33.9932 40.2212 33.9932C40.7188 33.8822 41.2585 33.821 41.7599 33.821C42.7666 33.821 44.1369 34.0583 44.933 35.1913C45.0173 35.2985 45.0976 35.4401 45.1742 35.5817C45.3656 35.9224 45.5455 36.2439 45.8785 36.2439L45.9665 36.2362L45.9589 36.2401Z" fill="#402312"/>
<path d="M43.3482 13.9671C43.4707 13.9671 43.551 13.9442 43.574 13.9059C43.5817 13.8944 43.6238 13.7643 43.2946 13.3662L43.1683 13.2092C42.5903 12.505 41.9932 11.7777 41.2889 11.1921C40.1636 10.2696 38.9158 9.55 37.5263 8.76916C34.0661 6.92806 30.8088 4.71185 27.8385 2.17794C26.3151 0.803808 24.4702 0.0497595 22.5066 0H22.4989C22.2922 0 22.1583 0.0229659 22.0664 0.0612425L21.9477 0.233487C21.9095 0.570321 22.4453 1.16361 22.763 1.51958C22.8702 1.63824 22.9621 1.74158 23.0195 1.81814C23.8692 2.73678 24.6156 3.54824 25.5266 4.07263C25.8979 4.29463 26.3036 4.45922 26.7055 4.62381L27.1074 4.79223C28.0375 5.17499 28.7725 5.7989 29.3007 6.64864C30.292 8.70026 30.9351 8.88017 32.003 9.18255C32.5542 9.33948 33.2432 9.53469 34.1274 10.0476C35.046 10.6141 35.7694 11.4026 36.4699 12.1643C36.7225 12.4284 36.8373 12.5853 36.9522 12.7384C37.1933 13.0561 37.4191 13.3547 37.7751 13.4848C37.9703 13.5576 38.2038 13.569 38.3837 13.5767C39.0344 13.5805 39.6851 13.6379 40.3358 13.6992C40.7454 13.7336 41.1549 13.7719 41.5683 13.7949C42.0889 13.8217 42.6209 13.8829 43.13 13.9595C43.2142 13.971 43.2908 13.9786 43.352 13.9786L43.3482 13.9671Z" fill="#402312"/>
<path d="M39.1798 50.1536C39.7578 50.1536 40.2783 49.9661 40.6075 49.6369C40.8716 49.3689 41.0056 49.0245 41.0056 48.6072C41.0056 47.8264 40.9175 47.1527 40.7491 46.5556C40.5999 46.0236 40.3281 45.5183 40.0678 45.0284C39.8075 44.5423 39.5396 44.0408 39.3788 43.505C39.2449 43.2026 39.1798 42.8466 39.1147 42.506C39.0075 41.9356 38.908 41.3959 38.4832 41.0323C38.3301 40.9213 38.1616 40.8103 37.9932 40.6993C37.6487 40.4735 37.2928 40.24 36.9904 39.9338C36.5349 39.5089 36.2325 39.0725 36.0603 38.6017C35.9646 38.3568 35.888 38.1616 35.7732 38.0199C35.5359 37.7367 35.1072 37.5645 34.6325 37.5645C34.3302 37.5645 34.0431 37.6372 33.8211 37.7597C33.3732 38.0391 32.9981 38.5099 32.7646 39.0879C32.4355 39.9835 32.489 41.0706 32.9369 42.4026C33.2201 43.2064 33.6029 44.1136 34.2842 44.703L34.5981 44.9595C35.1225 45.3882 35.666 45.8322 36.0181 46.4408C36.2823 46.8427 36.4622 47.3365 36.6344 47.8111C36.9444 48.6685 37.2353 49.4761 38.0009 49.8704C38.3415 50.0541 38.7587 50.1574 39.1798 50.1574V50.1536Z" fill="#402312"/>
<path d="M41.1817 40.1672C42.2994 40.0371 43.6774 39.2869 44.1405 38.1003C44.4008 37.4496 44.351 36.7568 44.0104 36.198C43.6812 35.6583 43.1339 35.3214 42.464 35.2602C42.3109 35.2411 42.1578 35.2334 42.0085 35.2334C41.3578 35.2334 40.7033 35.375 40.0679 35.509L39.6622 35.5932C38.6325 35.8573 37.2316 36.7798 37.3732 38.0046C37.7828 39.3941 39.6239 40.1596 41.1473 40.1672H41.1856H41.1817Z" fill="#402312"/>
<path d="M42.8048 47.5164C43.7273 47.394 44.2708 47.1643 44.4545 46.8083C44.6957 46.3452 44.3282 45.6447 43.9034 44.8332C43.7847 44.6112 43.6622 44.3778 43.5474 44.1366C43.3139 43.6237 43.1761 43.0764 43.046 42.5443L42.8852 41.9242C42.801 41.5491 42.6058 41.373 42.2843 41.373C42.1962 41.373 42.1005 41.3845 41.9972 41.4113C41.8173 41.4649 41.5953 41.4802 41.3771 41.4955C41.0211 41.5223 40.6498 41.5491 40.5121 41.729C40.401 41.8745 40.424 42.1194 40.4508 42.2879C40.5809 43.0075 40.7264 43.5433 40.9254 44.0141L41.2202 44.6916C41.3809 45.0514 41.5379 45.4112 41.6757 45.7787C41.7637 45.9509 41.8288 46.1806 41.89 46.4141C42.0469 46.9806 42.1924 47.5126 42.7627 47.5164H42.8048Z" fill="#402312"/>
<path d="M44.638 54.1039C45.0552 54.1039 45.4456 53.9699 45.6331 53.7594C45.8322 53.5068 45.7671 53.1393 45.702 52.7872C45.6102 52.1824 45.4456 51.7308 45.281 51.2944C45.1202 50.8619 44.9557 50.414 44.8868 49.9509C44.8408 49.7748 44.837 49.5605 44.8293 49.3499C44.8179 49.0169 44.8102 48.6725 44.6341 48.4696C44.5231 48.4466 44.4466 48.439 44.3853 48.439C44.3126 48.439 44.2628 48.4504 44.2016 48.4696L43.9375 48.5576C43.6428 48.6571 43.3519 48.7528 43.0456 48.8217C42.4945 48.9327 42.2572 49.1394 42.2686 49.4916C42.2342 50.4332 42.6437 51.2753 43.0418 52.0867C43.1949 52.4044 43.3442 52.7183 43.4743 53.0283C43.6581 53.5144 43.7767 53.8207 44.0064 53.9584C44.1672 54.0503 44.393 54.1001 44.6418 54.1001L44.638 54.1039Z" fill="#402312"/>
<path d="M46.33 59.3018C46.4334 59.3018 46.5023 59.2827 46.5367 59.2406C46.5903 59.1793 46.6018 59.0454 46.575 58.854C46.5176 58.5019 46.4411 58.1535 46.3607 57.809C46.219 57.1851 46.0736 56.5383 46.0506 55.8761C46.0277 55.4895 45.932 55.3134 45.7329 55.2905C45.6908 55.2905 45.6526 55.2866 45.6181 55.2866C45.488 55.2866 45.4114 55.2981 45.3349 55.3096L44.9636 55.3708C44.6191 55.4244 44.2631 55.4818 44.133 55.6311C43.9799 55.834 43.9837 56.1364 43.9875 56.4273V56.6493C44.0488 57.6253 44.2976 58.7277 44.8143 59.0033C44.9789 59.0837 45.1932 59.1181 45.4038 59.1526L45.6066 59.187C45.9932 59.2674 46.1846 59.3057 46.3262 59.3057L46.33 59.3018Z" fill="#402312"/>
</svg>
