<svg width="84" height="84" viewBox="0 0 84 84" fill="none" xmlns="http://www.w3.org/2000/svg">
<path d="M61.369 83.3016L61.2868 83.2886C59.9145 82.9942 58.5423 82.3449 57.2046 81.3666C56.9925 81.215 56.7934 81.0203 56.6029 80.8341C56.3518 80.5917 56.0877 80.3363 55.7847 80.1545H55.7761L55.7674 80.1458C55.4817 80.0073 55.2003 79.9424 54.8843 79.9424C54.7111 79.9424 54.5466 79.9597 54.3865 79.977C54.2263 79.9943 54.0748 80.0116 53.9189 80.0116C53.5683 80.0116 53.1181 79.938 52.4688 79.3839C51.4255 78.5008 50.2437 77.4229 49.3649 76.1589C48.8714 75.3537 48.4299 74.9641 48.01 74.9641C47.4342 74.9641 47.0706 75.648 46.9234 76.9943C46.7676 78.3233 45.5858 78.7952 44.6204 78.7952C44.2698 78.7952 43.9105 78.7389 43.5771 78.6264C43.0187 78.4445 42.4516 78.1069 41.9018 77.622C40.9928 76.8125 40.2569 75.7952 39.7807 74.6784V74.6654L39.7677 74.6524C39.6984 74.5399 39.6075 74.2325 39.5209 73.9381C39.2872 73.1373 39.0231 72.2282 38.4647 72.2282C38.3391 72.2282 38.2136 72.2758 38.0924 72.371L38.0794 72.3797L38.0664 72.3927C37.6638 72.8343 37.5729 73.4273 37.4863 73.9944C37.3954 74.5831 37.3088 75.1372 36.8933 75.4662C36.7894 75.5138 36.6811 75.5398 36.5686 75.5398C36.0491 75.5398 35.4777 75.029 35.0232 74.6178C34.8933 74.5009 34.7678 74.3883 34.6552 74.2974C33.534 73.3061 32.4778 72.1286 31.5211 70.7953C30.6899 69.6525 29.9756 68.4923 29.3999 67.3408C29.3653 67.2759 29.3306 67.2066 29.2917 67.133C28.9627 66.475 28.5081 65.5746 27.7982 65.5746C27.5428 65.5746 27.283 65.6958 27.0276 65.9426L26.9627 66.0118C26.4562 66.5313 25.9324 67.0638 25.4432 67.0638C25.1402 67.0638 24.8415 66.8603 24.5342 66.4404C24.4173 66.2846 24.3047 66.0984 24.1922 65.9209C24.0017 65.6093 23.8026 65.2889 23.5645 65.0681C23.3351 64.856 23.11 64.7521 22.8805 64.7521C22.2918 64.7521 21.8892 65.4101 21.426 66.172C21.0018 66.8646 20.5213 67.6525 19.8806 67.8949H19.8719L19.8633 67.9036C19.7204 67.9729 19.5732 68.0075 19.4347 68.0075C19.0451 68.0075 18.7291 67.7348 18.6079 67.3019C18.452 66.6958 18.504 66.0292 18.5559 65.3842C18.5819 65.0638 18.6079 64.7348 18.6079 64.4188C18.6425 63.2284 18.465 62.0336 18.2962 60.8821L18.2659 60.67C18.2399 60.5444 18.2183 60.4102 18.1966 60.276C18.0754 59.5488 17.9412 58.7263 17.3655 58.1895H17.3568L17.3481 58.1765C17.1014 57.986 16.833 57.8908 16.53 57.8908C16.0971 57.8908 15.6642 58.0856 15.2486 58.2761C14.8547 58.4535 14.4478 58.6397 14.0711 58.6397C13.9976 58.6397 13.924 58.631 13.8504 58.618C12.5603 58.38 12.3309 57.2111 12.1145 56.0856C11.9543 55.2674 11.8071 54.4926 11.1837 54.3021C11.1015 54.2761 11.0106 54.2631 10.9197 54.2631C10.4781 54.2631 10.0236 54.5402 9.62966 54.8043L9.61235 54.8172C9.24006 55.064 8.85911 55.3194 8.45652 55.5229C7.8548 55.8389 7.14485 56.0293 6.56045 56.0293C5.88513 56.0293 5.39596 55.7999 5.09727 55.3497C4.97173 55.1246 4.87217 54.9168 4.78126 54.7177C4.40465 53.9255 4.13626 53.3497 2.76831 53.1939H2.74233C2.25316 53.1333 1.95447 52.9861 1.8549 52.7567C1.73369 52.471 1.88954 52.0121 2.30511 51.4623L2.31377 51.4493C2.43065 51.2675 2.66874 50.9818 2.95012 50.6485C4.02802 49.3628 4.8332 48.3282 4.54316 47.7048C4.41762 47.4408 4.12326 47.3065 3.65574 47.3065C3.47825 47.3065 3.26613 47.3282 3.02804 47.3672C2.95445 47.3801 2.8722 47.3974 2.78562 47.4104C2.34407 47.4927 1.73802 47.6096 1.20556 47.6096C0.703407 47.6096 0.35277 47.5057 0.170955 47.3022C0.0324294 47.1464 -0.0195199 46.9299 0.00645371 46.6312C0.188269 45.878 0.872237 45.207 1.47829 44.614C1.60816 44.4884 1.7337 44.3629 1.84625 44.246C3.54752 42.64 4.80723 41.3326 5.50419 39.0902C5.87648 38.1465 6.07128 37.1509 6.26608 36.1899C6.37864 35.6271 6.49551 35.0427 6.6427 34.4843C6.82451 33.8739 7.12321 33.2895 7.41325 32.7224C7.56043 32.4367 7.71194 32.1423 7.84614 31.8436C8.14051 31.1986 8.35696 30.519 8.56474 29.861C8.76388 29.2333 8.97167 28.5796 9.24439 27.9692C9.31365 27.8047 9.38724 27.6359 9.46084 27.4714C9.8894 26.493 10.331 25.4844 10.3266 24.3676C10.292 23.6403 10.1751 23.0126 10.0582 22.4022C9.76819 20.8654 9.54308 19.6533 10.9803 18.0473C11.8677 17.0257 12.6642 16.2984 13.4867 15.7573C13.8071 15.5409 14.1534 15.3504 14.4867 15.1686C14.898 14.9391 15.3265 14.7054 15.7161 14.4197C16.3179 13.9911 16.8546 13.3894 17.3135 12.6318C17.452 12.411 17.5862 12.1859 17.7204 11.9608C18.5862 10.5193 19.4823 9.03015 20.9628 8.21631C21.4476 7.93926 21.9844 7.72714 22.5039 7.51935C22.7983 7.40247 23.1013 7.28126 23.3957 7.15139C24.6597 6.61027 25.0493 5.7921 25.4259 4.99991C25.8329 4.14278 26.2571 3.25535 27.8371 2.58004C28.6986 2.19043 29.625 1.98698 30.5124 1.98698C30.941 1.98698 31.3652 2.0346 31.7765 2.12551C31.863 2.14282 31.9496 2.16014 32.0362 2.17745C32.5167 2.27702 33.0102 2.38091 33.5167 2.38091C33.6163 2.38091 33.7158 2.38091 33.8067 2.36793C34.3825 2.33329 34.9236 2.14282 35.4474 1.961C35.6509 1.88741 35.863 1.81382 36.0664 1.75321C36.5556 1.6017 37.0621 1.52378 37.5729 1.52378C37.6552 1.52378 37.7331 1.52378 37.8153 1.52811C38.2699 1.5411 38.746 1.61469 39.2006 1.68828C39.7287 1.77053 40.2742 1.85711 40.8196 1.85711C41.0187 1.85711 41.2006 1.84412 41.3867 1.82248C42.2092 1.68828 42.6031 1.23374 42.9538 0.83548C43.3434 0.385272 43.681 0 44.5815 0C44.6897 0 44.8109 0.00433263 44.9407 0.0173194C46.0013 0.0865823 46.8152 0.251083 47.5121 0.532463C47.9623 0.714278 48.4039 0.948032 48.8325 1.17314C49.1528 1.34196 49.4861 1.51945 49.8238 1.67096C50.3736 1.92637 50.9493 2.13849 51.5077 2.34195C52.0575 2.54541 52.6289 2.7532 53.17 3.00428C53.499 3.14713 53.8237 3.32461 54.1397 3.49777C54.564 3.73153 55.0055 3.96963 55.4644 4.13846C55.6765 4.22503 55.8886 4.264 56.1007 4.264C56.5899 4.264 57.0055 4.04754 57.4037 3.83543C57.789 3.63197 58.1526 3.4415 58.5682 3.4415C58.6938 3.4415 58.8193 3.45882 58.9492 3.49345H58.9578C59.4903 3.61899 60.0227 3.84409 60.5335 4.06054L60.6071 4.09084C61.9318 4.66226 63.0919 5.22069 63.8668 6.25963C64.0833 6.54101 64.2867 6.84837 64.4772 7.14273C64.698 7.47606 64.9231 7.82238 65.1785 8.14272C65.4166 8.43708 65.6763 8.71846 65.9274 8.99118C66.4815 9.5929 67.0053 10.16 67.3256 10.8786C67.646 11.5756 67.7152 12.0604 67.5421 12.3591C67.3127 12.753 66.633 12.8915 65.6071 12.9825H65.5941C62.8452 13.3937 61.3214 14.411 60.9318 16.082C60.8279 16.4586 60.763 16.8482 60.698 17.2248C60.6071 17.7789 60.5162 18.3027 60.3128 18.7919C59.6894 20.2681 58.2868 21.268 56.9968 22.0516C55.88 22.7009 54.7241 23.3676 53.4731 23.6533C52.8064 23.8048 52.1008 23.8654 51.4212 23.9217C50.603 23.9909 49.7588 24.0645 48.9537 24.2896C46.9364 24.7788 44.9494 26.1424 45.4126 28.5017C45.642 30.0514 47.0836 31.7094 49.4039 31.8826C49.4472 31.8826 49.4905 31.8826 49.5337 31.8826C50.0749 31.8826 50.603 31.7873 51.1181 31.6964C51.6376 31.6012 52.1268 31.5146 52.6289 31.5146C52.88 31.5146 53.1051 31.5363 53.3259 31.5795H53.3345C53.9319 31.6705 54.5293 31.8436 55.1051 32.0081C55.8626 32.2246 56.6462 32.4497 57.4643 32.5059C57.6591 32.5406 57.9232 32.5492 58.2306 32.5579C58.9016 32.5795 59.8236 32.6098 60.0617 32.9691C60.1396 33.086 60.1396 33.2505 60.0617 33.4626C59.8409 33.8782 59.4686 34.2159 59.0747 34.5752C58.7544 34.8652 58.4254 35.1639 58.1743 35.5189C57.5423 36.2808 57.3215 37.2201 57.105 38.1249C57.0098 38.5275 56.9102 38.9431 56.7804 39.3327C56.6981 39.5707 56.6029 39.8045 56.5033 40.0556C56.0921 41.0902 55.6635 42.1551 55.9839 43.2806C56.2176 44.233 56.9622 44.7611 57.6808 45.2719C58.0444 45.5274 58.3864 45.7698 58.6635 46.0641C59.1267 46.5576 59.3864 47.168 59.6634 47.8217C59.8582 48.2762 60.0574 48.7481 60.3344 49.1766C60.5379 49.5446 60.8236 49.9082 61.0963 50.2589C61.5595 50.8519 62.04 51.4666 62.1309 52.103C62.1482 52.4017 62.092 52.7091 62.04 53.0078C61.9231 53.6744 61.8019 54.3627 62.408 55.0034C63.2088 55.8995 64.2954 56.5012 65.3473 57.038C65.685 57.2025 66.0356 57.354 66.3733 57.5012C66.9187 57.7393 67.4858 57.9817 67.988 58.2847C68.8061 58.8215 69.6156 59.4146 70.3949 59.9903C71.8104 61.0293 73.2736 62.1072 74.8753 62.8993C75.2476 63.0898 75.6415 63.2543 76.0181 63.4145C76.3298 63.5444 76.6545 63.6829 76.9532 63.8257C77.8839 64.3019 77.6934 64.7088 77.6328 64.843C77.5462 65.0205 77.3385 65.211 77.1393 65.3971C76.9792 65.5443 76.8103 65.7002 76.6978 65.8604C76.529 66.0681 76.4684 66.3062 76.5203 66.5443C76.6112 66.9815 77.0571 67.3452 77.4467 67.5486C77.7281 67.7348 78.1523 67.8863 78.5982 68.0465C79.4034 68.3322 80.3124 68.6568 80.399 69.2066C80.3254 69.8819 79.2865 70.094 78.5246 70.2455C78.3947 70.2715 78.2735 70.2975 78.1696 70.3191C77.8449 70.3797 77.5116 70.436 77.1913 70.4923C76.5722 70.5962 75.9359 70.7044 75.3169 70.8603C74.9792 70.9425 74.6415 71.0464 74.3169 71.146C73.6069 71.3624 72.9359 71.5659 72.2303 71.5832H72.2217H72.213C72.1611 71.5875 72.1048 71.5919 72.0399 71.5919C71.8537 71.5919 71.6546 71.5702 71.4425 71.5442C71.226 71.5182 71.0009 71.4923 70.7801 71.4923C70.4814 71.4923 70.239 71.5442 70.0356 71.6481L70.0139 71.6568L69.9966 71.6698C69.8148 71.8213 69.7239 72.0291 69.7282 72.2758C69.7455 73.41 71.8754 75.1372 71.9057 75.1589C72.7801 75.7822 73.2043 76.3147 73.1351 76.7C73.0615 77.1199 72.3948 77.5008 71.1524 77.8385C70.1524 78.1372 69.0962 78.2844 68.0183 78.2844C67.4079 78.2844 66.7932 78.2368 66.1871 78.1415C65.5465 78.042 64.9404 77.8039 64.4339 77.5831C64.2305 77.4922 63.8322 77.3363 63.4772 77.3363C63.2262 77.3363 63.027 77.4099 62.8972 77.5614C62.7543 77.7216 62.698 77.9554 62.7283 78.2541C62.7586 78.6393 62.9058 79.0333 63.0443 79.3709C63.369 80.1545 63.6893 80.8514 64.0183 81.4964L64.0357 81.5311C64.3776 82.228 64.6201 82.8341 64.1612 83.1891C63.8235 83.3839 63.4036 83.4748 62.8798 83.4748C62.369 83.4748 61.8279 83.3839 61.3517 83.3059L61.369 83.3016ZM39.5123 11.9782L39.5036 11.9955V12.0171C39.469 12.1773 39.5036 12.3245 39.5945 12.45C39.8239 12.753 40.3564 12.818 40.8802 12.8612H40.9062C41.7287 12.8872 42.1616 13.0041 42.3564 13.2552C42.5425 13.4976 42.5555 13.9391 42.3867 14.6448V14.6578C42.1789 15.8958 42.1399 17.6447 43.1053 18.9391C44.062 20.1122 45.8498 20.9347 47.4515 20.9347C47.5078 20.9347 47.5684 20.9347 47.629 20.9347C48.5467 20.8828 49.5251 20.5797 50.4558 20.0603C50.9883 19.7616 51.4558 19.385 51.854 18.9434C52.3129 18.4109 52.7415 17.9651 53.3735 17.9261H53.3865C53.4774 17.9131 53.5683 17.9045 53.6635 17.9001C53.9536 17.8742 54.2566 17.8482 54.4687 17.7486C54.7501 17.6274 54.815 17.4239 54.828 17.3157C54.8583 17.082 54.7241 16.8222 54.4601 16.6144C54.2566 16.4456 54.0099 16.3027 53.7415 16.1469C53.4947 16.004 53.2436 15.8569 53.0402 15.6967C52.7415 15.4673 52.4558 15.2032 52.1744 14.9521C51.6289 14.4586 51.0662 13.9521 50.3909 13.6058C49.5208 13.1253 48.5424 12.9132 47.5987 12.7097C47.274 12.6405 46.9407 12.5669 46.6204 12.4846C46.4126 12.4284 46.2048 12.3721 45.997 12.3115C44.4949 11.8959 42.9408 11.463 41.3477 11.3678C41.2612 11.3591 41.1659 11.3548 41.0707 11.3548C40.6767 11.3548 39.7374 11.4154 39.5036 11.9825L39.5123 11.9782Z" fill="#402312"/>
<path d="M81.9706 38.614C82.9186 38.601 83.3601 37.3672 83.5376 36.6313C83.9142 35.2547 83.8666 33.8132 83.8233 32.4193C83.8147 32.1465 83.806 31.8781 83.8017 31.6054C83.8104 31.0946 83.858 30.5838 83.9013 30.0903C83.9922 29.0816 84.0831 28.0384 83.8666 27.0384C83.5506 25.3458 82.9229 23.9735 82.0009 22.9519C81.6849 22.6012 81.3255 22.2809 80.9792 21.9692C80.6849 21.7051 80.3818 21.4324 80.1005 21.1424C79.8451 20.8826 79.5983 20.6099 79.3602 20.3459C79.1871 20.1554 79.0096 19.9563 78.8321 19.7701C78.2174 19.1121 77.4771 18.4758 76.5075 17.7745L76.4339 17.7225C76.0313 17.4455 75.5724 17.1338 75.1222 17.1338C75.0659 17.1338 75.0096 17.1381 74.9534 17.1468C74.4988 17.281 74.317 17.887 74.1438 18.4801C74.0573 18.7745 73.975 19.0515 73.8538 19.2766C73.0919 21.1597 71.9101 21.8047 70.2738 22.7008L70.1266 22.7831C69.776 22.9779 69.4253 23.1986 69.0877 23.4107C68.5898 23.7224 68.0747 24.0471 67.5336 24.3068C66.802 24.6618 65.9708 24.8479 65.131 24.8479C64.6505 24.8479 64.1787 24.7873 63.7198 24.6705C63.5639 24.6315 63.4038 24.5925 63.2479 24.5492C62.6419 24.3891 62.0142 24.2246 61.3952 24.2246C61.3649 24.2246 61.3302 24.2246 61.2999 24.2246C60.6895 24.2332 60.0748 24.3588 59.4774 24.48C59.2913 24.5189 59.1095 24.5536 58.9233 24.5882C57.7502 24.8479 56.5424 24.8696 55.3693 24.8912C55.0359 24.8956 54.6896 24.9042 54.352 24.9172C53.6161 24.9562 52.8672 25.0601 52.1399 25.1596C51.8325 25.2029 51.5252 25.2419 51.2135 25.2808L50.9278 25.3155C50.3997 25.3804 49.8499 25.4497 49.3218 25.5622C48.7763 25.6791 47.7634 25.8999 47.5729 26.5232C47.5426 26.6488 47.5945 26.7873 47.7201 26.8869C48.0967 27.1769 48.6638 27.1856 49.2135 27.1899C49.2958 27.1899 49.3824 27.1899 49.4646 27.1899C49.4646 27.1899 49.5512 27.1899 49.5858 27.1899C50.2179 27.1899 50.8672 27.099 51.4949 27.0081C52.0273 26.9345 52.5771 26.8566 53.1269 26.8306C53.2265 26.8306 53.3217 26.8263 53.4213 26.8263C53.997 26.8263 54.5684 26.8912 55.1225 26.9561C55.5771 27.0081 56.0489 27.0644 56.5078 27.0773C56.6636 27.086 56.8281 27.086 56.997 27.086C57.6463 27.086 58.3129 27.0341 58.9536 26.9821H58.9926C59.7631 26.9128 60.5424 26.8912 61.2999 26.8696C61.4861 26.8652 61.6765 26.8566 61.8627 26.8522C62.5466 26.8133 63.2609 26.796 63.9838 26.796C65.0791 26.796 66.2003 26.8393 67.4124 26.9215C68.5812 26.9951 69.5162 27.1553 70.3517 27.428C72.1482 28.0167 73.9793 28.9431 76.1092 30.3457C76.9403 30.8998 77.568 31.3976 78.0962 31.9214C79.3126 33.1465 80.3039 34.7266 81.0485 36.6183C81.1394 36.8261 81.1957 37.0815 81.2606 37.3542C81.3905 37.9257 81.5247 38.5144 81.9749 38.6053L81.9706 38.614Z" fill="#402312"/>
<path d="M65.4815 23.4844C65.9404 23.4844 66.3733 23.4151 66.8105 23.2722C67.6027 23.0298 68.3559 22.5839 69.0875 22.151C69.239 22.0601 69.3862 21.9736 69.5377 21.887C69.6936 21.7961 69.8581 21.7008 70.0182 21.6099C70.5594 21.3026 71.1221 20.9822 71.5896 20.5796C72.3299 19.9996 72.9273 18.7658 73.0269 17.6403C73.0701 17.1078 73.0269 16.3633 72.5507 15.8351C72.1654 15.4282 71.0875 15.0126 69.5204 14.6707C68.1395 14.3676 66.7239 14.2075 66.0443 14.2031H66.0226C63.9491 14.2551 62.6201 14.8092 62.079 15.8611C61.8452 16.3243 61.7803 16.8741 61.711 17.4542C61.6851 17.6619 61.6634 17.8784 61.6288 18.0862C61.4946 19.2507 60.8842 20.3416 59.815 21.3242C59.7717 21.3632 59.7284 21.4108 59.6808 21.4541C59.4037 21.7181 59.118 21.9909 58.9362 22.3025C58.7977 22.519 58.7587 22.7181 58.828 22.8437C58.8886 22.9562 59.0444 23.0212 59.2652 23.0212C59.2868 23.0212 59.3085 23.0212 59.3258 23.0212C59.5682 23.0212 59.8669 22.9605 60.1569 22.8999C60.3517 22.861 60.5509 22.8177 60.7413 22.7961C60.9881 22.7571 61.2392 22.7354 61.4903 22.7354C61.9318 22.7354 62.3777 22.8004 62.8062 22.9259C63.6764 23.203 64.5681 23.4844 65.4859 23.4844H65.4815Z" fill="#402312"/>
<path d="M75.1437 33.3067C75.5463 33.3067 75.9576 33.3067 76.3169 33.2072C76.5593 33.1422 76.7325 33.0254 76.7931 32.8782C76.8407 32.7613 76.8234 32.6184 76.7325 32.4626C76.503 32.073 76.0788 31.7829 75.6632 31.5016C75.6113 31.4669 75.5593 31.428 75.5074 31.3933C73.6892 30.1986 72.1049 29.3977 70.5291 28.8826C68.7846 28.3458 66.9188 28.3285 65.1136 28.3155C64.6807 28.3155 64.2305 28.3068 63.7846 28.2982H63.7673C63.5595 28.2982 63.3561 28.2938 63.1526 28.2938C62.1526 28.2938 61.131 28.3371 60.144 28.3847C59.1484 28.428 58.1224 28.4756 57.1094 28.4756C56.9926 28.4756 56.8757 28.4756 56.7588 28.4756H56.7328C56.1268 28.4756 55.525 28.3847 54.945 28.2982C54.3952 28.2159 53.8238 28.1337 53.2653 28.125C53.2394 28.125 53.2134 28.125 53.1874 28.125C52.5857 28.125 52.0056 28.2549 51.3952 28.3891C50.9364 28.4886 50.4602 28.5969 49.9797 28.6401C49.8022 28.6618 49.6074 28.6704 49.3953 28.6704C49.1009 28.6704 48.8022 28.6531 48.5165 28.6315C48.2568 28.6142 47.9884 28.5969 47.7286 28.5969H47.694C47.339 28.5969 47.0706 28.7181 46.9711 28.9172C46.8802 29.099 46.9408 29.3371 47.1356 29.5882C47.4602 30.0124 48.01 30.2505 48.4169 30.3804C48.6983 30.4756 48.9927 30.5189 49.3217 30.5189C49.8065 30.5189 50.287 30.4237 50.7978 30.3241C51.1745 30.2505 51.5641 30.1726 51.958 30.1379C52.1268 30.1163 52.3043 30.1033 52.4818 30.1033C53.326 30.1033 54.1311 30.3674 54.906 30.6228C55.248 30.7353 55.5986 30.8522 55.945 30.9388C56.8887 31.1769 57.906 31.1769 58.8886 31.1769H59.7804C60.6462 31.1812 61.5423 31.1855 62.421 31.1899H62.4383C63.4383 31.1899 64.3993 31.363 65.2868 31.7094C65.6028 31.8262 65.9231 31.9474 66.2348 32.0686C67.0313 32.376 67.8582 32.6963 68.6936 32.9085C69.9577 33.2245 71.3083 33.2505 72.6157 33.2764C72.8797 33.2808 73.1481 33.2851 73.4122 33.2937C73.9706 33.3024 74.4728 33.3067 74.949 33.3067C75.0096 33.3067 75.0745 33.3067 75.1394 33.3067H75.1437Z" fill="#402312"/>
<path d="M47.2179 19.5366C48.469 19.5366 49.6854 19.0172 50.4776 18.1471C50.8758 17.7142 51.1139 17.2899 51.1832 16.8787C51.2525 16.5367 51.1572 16.1471 50.9235 15.8267C50.7243 15.5497 50.4473 15.3722 50.1702 15.3376C50.1443 15.3376 50.1183 15.3376 50.088 15.3376C49.6118 15.3376 49.2395 15.7618 48.8412 16.2077C48.3867 16.7228 47.8716 17.3029 47.101 17.3029C47.0101 17.3029 46.9149 17.2943 46.824 17.2769C46.0577 17.1211 45.5556 16.3852 45.3911 15.7229C45.3088 15.4372 45.3088 15.1298 45.3088 14.8354C45.3088 14.4198 45.3088 14.0605 45.0794 13.8398C45.0101 13.7922 44.9322 13.7705 44.8456 13.7705C44.5946 13.7705 44.3088 13.9653 44.14 14.1558C43.7374 14.6147 43.6812 15.264 43.6812 15.8354V15.8527C43.6941 16.5064 43.7548 17.3462 44.1357 17.9869C44.7807 18.9695 45.9019 19.5366 47.2092 19.5366H47.2179Z" fill="#402312"/>
</svg>
