<svg width="68" height="89" viewBox="0 0 68 89" fill="none" xmlns="http://www.w3.org/2000/svg">
<path d="M27.3098 46.9114C27.1499 46.9023 26.9809 46.8977 26.8074 46.8977H26.1588C25.3504 46.8977 24.4552 46.8521 24.003 46.2674C23.729 45.8929 23.6833 45.3859 23.6559 44.8972C23.5417 43.3991 23.7472 41.9284 24.2816 40.3892C24.6287 39.1971 24.5602 38.5897 24.4689 37.8269C24.4186 37.4113 24.3684 36.9363 24.3684 36.2969C24.5602 34.3968 23.5417 34.0543 22.4684 33.6843C21.8015 33.456 21.1164 33.223 20.6414 32.6019C20.1938 31.9853 20.2029 31.2134 20.2121 30.3913C20.2121 30.2177 20.2121 30.0441 20.2121 29.8751C20.2121 29.1307 20.1025 28.3908 19.9837 27.6326C19.7645 26.541 19.8284 25.833 20.1847 25.3991C20.5135 24.9972 21.1119 24.8099 22.0619 24.8099H22.3313C22.6648 24.778 23.0347 24.7734 23.4229 24.7688C24.784 24.7551 26.3278 24.7369 26.9033 23.3666C27.1499 22.7455 27.2367 22.0787 27.3235 21.4255L27.4148 18.8221C27.4148 16.0497 26.3141 16.4745 25.7112 15.6661C25.3275 15.1545 25.5057 13.3276 26.136 11.9208C26.4694 11.2357 27.0403 10.6922 27.5473 10.2126L28.0086 9.77873C28.7759 9.05252 29.5661 8.30347 30.5024 7.80106C32.6171 6.75057 33.1103 6.13397 32.5303 3.80918C32.3567 2.74955 32.8226 1.62142 33.7223 0.93631C34.4851 0.333418 35.5128 0 36.6135 0C38.2075 0 39.6462 0.707942 40.3633 1.84978C40.8977 2.69475 40.7652 3.49404 40.6328 4.27049C40.4501 5.37122 40.272 6.41258 42.2953 7.09312C42.8297 7.31235 43.2681 7.50875 43.6792 7.77366C44.2867 8.14818 44.7434 8.6917 45.223 9.26262C45.5564 9.65998 45.9035 10.071 46.3009 10.4182L46.6297 10.6968C47.3148 11.2723 48.0228 11.866 48.1415 12.7658C48.2557 13.492 48.4612 14.3415 48.0867 15.0677C47.9771 15.2641 47.0591 15.6387 46.9357 15.8351C46.5612 16.4334 46.6206 16.8536 46.5841 17.6118C46.5658 18.9683 46.6252 21.5214 46.817 22.6815C46.9905 23.6955 47.662 24.4217 48.5206 24.5359C48.7673 24.577 49.0367 24.5907 49.3062 24.5907C49.6716 24.5907 50.0507 24.5633 50.4298 24.5359C50.7906 24.5085 51.1514 24.4811 51.4894 24.4811C52.2659 24.4811 52.7409 24.6272 53.0286 24.9515C53.3392 25.2941 53.4442 25.8559 53.3529 26.6643C53.2341 27.3768 53.3483 28.0847 53.4534 28.7698C53.563 29.4595 53.6635 30.1081 53.5538 30.7566C53.3986 31.5331 53.1017 32.6338 52.3298 33.2504C52.0283 33.4879 51.6538 33.6661 51.293 33.8396C50.987 33.9812 50.6901 34.1274 50.4252 34.3055C49.3245 35.0134 49.3519 35.5295 49.3884 36.2421C49.4021 36.5389 49.4204 36.8724 49.3656 37.3017C49.3473 37.731 49.2879 38.1603 49.2331 38.5851C49.1509 39.1789 49.0687 39.7909 49.1007 40.3938C49.16 41.1839 49.3565 41.9604 49.5483 42.7094C49.699 43.2986 49.8543 43.9107 49.9456 44.5364C50.069 45.0936 50.0096 45.5732 49.7675 45.9249C49.5483 46.24 49.192 46.4364 48.7124 46.5049C47.7944 46.6374 46.849 46.6694 45.9401 46.7059C45.2732 46.7287 44.6064 46.7561 43.9441 46.8155C43.6153 46.8338 43.2864 46.8383 42.9621 46.8383C42.277 46.8383 41.5919 46.8109 40.9114 46.779C40.2263 46.7516 39.5412 46.7196 38.8606 46.7196C38.5455 46.7196 38.2349 46.7242 37.9198 46.7424C37.632 46.7561 37.3443 46.7607 37.0611 46.7607C36.3532 46.7607 35.6452 46.7242 34.9373 46.6876L34.6221 46.6739C34.3481 46.6602 34.0786 46.6557 33.8046 46.6557C32.8408 46.6557 31.8543 46.7196 30.8997 46.7835C29.9451 46.8429 28.9586 46.9069 27.9949 46.9069C27.7802 46.9069 27.5655 46.9069 27.3052 46.8977L27.3098 46.9114ZM36.1568 37.4022C35.2159 38.0918 35.193 39.4118 35.1748 40.4714L35.1657 41.1109C35.1657 41.7183 35.1656 42.408 35.5127 42.8647C35.7868 43.2164 36.2527 43.4174 36.7871 43.4174C37.3077 43.4174 37.8101 43.2256 38.1253 42.9195C38.7967 42.3486 38.7008 40.1654 38.1801 38.7404C37.8238 37.7721 37.3077 37.2377 36.7323 37.2377C36.545 37.2377 36.3577 37.2925 36.1522 37.4067L36.1568 37.4022ZM33.4574 15.867C33.3387 15.8533 33.2154 15.8488 33.092 15.8488C32.1694 15.8488 31.6396 16.2461 31.5163 17.0317C31.3382 18.0046 31.2697 20.6947 31.2651 21.0464C31.2468 23.0104 31.4021 24.5131 33.6082 24.5496C35.6452 24.5359 35.6818 23.7549 35.7 22.1883C35.7 21.8823 35.6954 20.8683 35.7137 20.544C35.7228 18.9683 35.9238 16.9449 35.1702 16.0726C34.8185 15.6615 34.0832 15.8625 33.4803 15.8625H33.4574V15.867ZM37.5818 16.5567C37.326 17.8264 37.3351 21.3113 37.4676 22.54C37.6594 24.2847 38.2897 24.2573 39.6417 24.2573C39.8381 24.2573 40.0482 24.2436 40.2628 24.2207C41.8842 24.1248 42.0487 23.3986 41.9893 21.9599C41.9756 21.7315 41.9664 20.7358 41.9664 20.407C41.9664 16.6755 42.0715 16.1 40.9616 15.5656C40.4684 15.392 39.6143 15.4331 39.0022 15.4331C38.2395 15.4331 37.7645 15.8077 37.5818 16.5521V16.5567ZM44.1268 15.698C43.7843 15.9447 43.4417 15.698 43.7203 18.8267C43.798 19.6808 43.798 20.6354 43.8528 21.5488L43.8939 22.7227C43.9396 23.184 43.8254 23.3073 44.1953 23.6544C44.2775 23.7001 44.5287 23.7503 44.6018 23.7503C44.7297 23.7503 44.8348 23.6818 44.9215 23.5448C45.1225 23.2251 45.1499 22.6176 45.1362 22.1517C45.0997 21.6722 45.086 20.9825 45.0723 20.2334C45.0449 18.7399 45.0083 17.05 44.7708 16.1137C44.6566 15.8214 44.4831 15.6524 44.3004 15.6524C44.2456 15.6524 44.1908 15.6661 44.1314 15.7026L44.1268 15.698ZM29.155 15.899H29.1504C29.0636 15.899 28.986 15.9584 28.9266 16.068C28.8033 16.2827 28.7439 16.6846 28.7713 17.1185C28.8033 17.7351 28.817 19.9503 28.7713 20.5486C28.7576 20.9368 28.7028 21.3387 28.648 21.727C28.5612 22.3253 28.4745 22.9419 28.5384 23.5676C28.6023 24.0655 28.8627 24.4582 29.1367 24.4582C29.1961 24.4582 29.2509 24.44 29.3057 24.3989C29.6072 24.1477 29.6437 23.7229 29.6848 23.2342C29.6985 22.9373 29.7213 22.6359 29.7396 22.3299C29.7807 21.6676 29.8264 21.0008 29.8309 20.2791C29.8218 20.1375 29.8173 19.8863 29.8173 19.5757C29.8081 17.8949 30.3882 15.8305 29.187 15.9081H29.1596L29.155 15.899Z" fill="#A9DBD3"/>
<path d="M27.4422 88.5386C27.6569 88.5386 27.8716 88.5249 28.0817 88.4883C28.8124 88.3787 29.5295 88.0772 30.2238 87.7849C30.9134 87.4972 31.6259 87.1957 32.3704 87.0724C32.8226 86.9674 33.2976 86.9126 33.8228 86.9126C34.7957 86.9126 35.7731 87.0998 36.7185 87.278C37.6457 87.4515 38.6094 87.6342 39.5412 87.6342H39.7558C41.0027 87.5018 42.2588 87.3556 43.5148 87.2094L45.2413 87.0085C45.6158 86.9354 46.0086 86.8989 46.4288 86.8989C47.3833 86.8989 48.3151 87.0953 49.1829 87.3054C49.4524 87.3647 49.7401 87.3967 50.0598 87.3967C50.5896 87.3967 51.1286 87.3099 51.6493 87.2323C52.1836 87.1501 52.7363 87.0633 53.2889 87.0633H53.4534C54.0974 87.077 54.7505 87.2277 55.3808 87.3739C56.0156 87.5246 56.6779 87.6799 57.3219 87.6799H57.4864C58.2034 87.6616 58.9114 87.4744 59.5965 87.2962C60.1354 87.1546 60.6926 87.0085 61.2544 86.94C61.4189 86.8897 61.702 86.8669 62.1268 86.8669C62.515 86.8669 62.9855 86.8852 63.4833 86.9126C64.0497 86.94 64.6571 86.9674 65.2372 86.9674C66.6667 86.9674 67.4889 86.7893 67.7538 86.4193C67.8634 86.264 67.8726 86.0722 67.7903 85.8301C67.6579 85.5835 67.3199 85.3231 66.9956 85.0674C66.7901 84.9075 66.5845 84.7476 66.4156 84.5832C66.105 84.2909 65.8401 83.9484 65.5843 83.6149C65.3194 83.2769 65.0499 82.9253 64.7348 82.6329C64.0223 81.893 63.0768 81.619 62.0766 81.3313C61.2773 81.0983 60.4506 80.8608 59.7609 80.363C59.0347 79.8925 58.6693 79.1343 58.3131 78.3944C58.1121 77.9834 57.9111 77.554 57.6462 77.1978C57.3174 76.773 56.8332 76.5584 56.212 76.5584C55.7096 76.5584 55.1387 76.7045 54.6044 76.974C54.175 77.1749 53.7731 77.4581 53.3848 77.7276C52.8368 78.1113 52.2704 78.5086 51.6218 78.6822C51.3158 78.7644 50.987 78.8055 50.6079 78.8055C50.1192 78.8055 49.6168 78.737 49.1281 78.673C48.6439 78.6045 48.1415 78.5406 47.6574 78.5406C47.5158 78.5406 47.3742 78.5452 47.2326 78.5589C45.8167 78.6274 44.6018 79.4038 43.5742 80.1255C41.3864 81.6144 39.226 82.9481 36.8145 82.9481C36.6546 82.9481 36.4902 82.9435 36.3257 82.9298C34.9053 82.7334 33.5077 81.893 32.5805 80.6781C32.3293 80.3401 32.1101 79.9702 31.8954 79.6048C31.5985 79.1024 31.2879 78.5817 30.8997 78.1615C30.6485 77.8738 30.3745 77.6134 30.0959 77.3531C29.8766 77.1475 29.662 76.9374 29.4564 76.7182C29.0499 76.3071 28.7211 75.8093 28.4059 75.3343C27.9903 74.7086 27.561 74.0646 26.9626 73.6124C25.7706 72.7446 24.4003 72.2422 23.2083 72.2422C22.8748 72.2422 22.5506 72.2787 22.2446 72.3564C21.5823 72.5208 20.952 72.8268 20.3445 73.1283L19.3899 73.5804C18.6592 73.9138 17.9101 74.2564 17.3438 74.8228L16.6998 75.5353C16.0421 76.2569 15.3844 76.9831 14.7678 77.7367L14.5029 78.093C14.1283 78.5954 13.7447 79.1206 13.1738 79.4404C12.6622 79.7418 12.0365 79.8377 11.4336 79.9336C10.9129 80.0158 10.3786 80.0981 9.93095 80.3127C9.04031 80.7649 8.72516 81.482 8.38718 82.2356C7.95328 83.213 7.50109 84.2224 5.79746 84.67C5.04385 84.8664 4.2674 84.9851 3.51835 85.0993C2.74646 85.2181 1.95175 85.3368 1.189 85.5424C0.860153 85.6291 0.389716 85.7753 0.133943 86.0676C-0.00764496 86.2412 -0.0350547 86.4102 0.0425905 86.5746C0.21615 86.9354 0.860152 87.1912 1.33059 87.1912H1.53613C2.16186 87.1912 2.79671 87.109 3.41331 87.0268C4.04361 86.9445 4.69216 86.8578 5.34072 86.8578C5.44577 86.8578 5.5554 86.8578 5.66044 86.8669C6.07151 86.8943 6.48258 86.9034 6.89364 86.9034C8.26842 86.9034 9.67516 86.771 11.0317 86.6385C11.5249 86.5929 12.0137 86.5472 12.5024 86.5061H12.6531C13.1783 86.5061 13.699 86.5837 14.206 86.6568C14.6993 86.7299 15.2154 86.8075 15.7178 86.8075C15.8914 86.8075 16.0603 86.7984 16.2339 86.7801C16.6769 86.7436 17.1291 86.6385 17.5676 86.5335C18.1202 86.4056 18.6911 86.2686 19.2575 86.2686C19.3854 86.2686 19.5178 86.2731 19.6457 86.2914C20.2623 86.3554 20.8333 86.5746 21.4635 86.8349C22.8566 87.4378 24.3227 87.8763 25.5924 88.2462C26.3232 88.4518 26.917 88.5477 27.4605 88.5477L27.4422 88.5386Z" fill="#A9DBD3"/>
<path d="M38.5272 64.8386C41.4549 64.8386 44.5104 64.7381 47.872 64.528C49.5802 64.496 50.4069 64.2859 50.8408 63.7835C51.2747 63.2765 51.3569 62.4133 51.1285 60.7005C51.0417 59.9515 50.891 59.2024 50.7449 58.4762C50.6261 57.8916 50.5074 57.3024 50.4206 56.7132C50.2744 55.7038 50.2836 54.6671 50.2927 53.6668C50.2927 53.105 50.3018 52.5432 50.279 51.986L50.2607 51.4836C50.2379 50.7848 50.215 50.0769 50.1557 49.3826C50.1328 49.0812 50.0232 48.3504 49.5345 48.0581C49.2239 47.8662 48.8083 47.7749 48.2237 47.7749C47.9542 47.7749 47.6847 47.7932 47.429 47.8114L47.0179 47.8343L46.1547 47.8982C45.5701 47.9439 44.99 47.985 44.4054 48.017C43.9121 48.0398 43.4142 48.0489 42.921 48.0489C41.7015 48.0489 40.482 47.9941 39.2625 47.9393C38.0476 47.8845 36.8281 47.8297 35.6132 47.8297C35.0377 47.8297 34.4622 47.8434 33.8867 47.8708C33.1422 47.8982 32.4023 47.9393 31.6624 47.9759C30.2876 48.0489 28.8626 48.122 27.4604 48.122C26.9261 48.122 26.3871 48.1129 25.8527 48.0855C25.702 48.0763 25.5558 48.0718 25.4234 48.0718C24.5967 48.0718 24.0623 48.2225 23.7426 48.5514C23.295 49.0127 23.2265 49.8622 23.2585 51.0817C23.2767 52.0637 23.2128 53.0045 23.1534 53.9134C23.094 54.8132 23.0301 55.745 23.0484 56.6676C23.0712 57.0512 23.1077 57.4349 23.1489 57.8231C23.2676 59.0106 23.3909 60.2438 23.0438 61.4496C22.5779 63.1532 22.514 63.9799 22.8246 64.3864C23.0255 64.6513 23.4092 64.7655 24.076 64.7655C24.6241 64.7655 25.3366 64.6833 26.0263 64.5965L27.2001 64.4869C28.5201 64.359 29.8903 64.222 31.2468 64.222C31.5391 64.222 31.836 64.2266 32.1283 64.2403C33.2427 64.2768 34.3663 64.4184 35.4533 64.5554C36.3166 64.665 37.1843 64.7746 38.0521 64.834H38.5226L38.5272 64.8386Z" fill="#A9DBD3"/>
<path d="M34.6722 80.7053C34.1561 80.2531 33.8181 79.6685 33.4664 79.0473C33.2197 78.6134 32.964 78.1704 32.6443 77.7776C32.32 77.3756 31.9455 77.0148 31.5846 76.6631C31.2375 76.3252 30.8767 75.978 30.5661 75.5989C30.3012 75.2838 30.0728 74.9367 29.8399 74.5941C29.6161 74.2607 29.3923 73.9273 29.1365 73.6213C28.4697 72.7809 27.5197 72.2693 26.6839 71.8811C25.5923 71.3741 24.7107 71.0864 23.8247 70.9494C23.0163 70.8717 22.5001 70.6571 22.2398 70.2871C21.8196 69.6796 22.0982 68.6428 22.3951 67.5512C22.8153 66.0486 24.318 65.9481 25.7704 65.8522C26.0947 65.8293 26.4052 65.8065 26.693 65.7745C27.2274 65.7334 27.7663 65.6832 28.3053 65.6329C29.3786 65.5279 30.4885 65.4229 31.5801 65.4229C31.8952 65.4229 32.2104 65.432 32.5255 65.4503C33.3796 65.5142 34.2291 65.6238 35.0787 65.7289C36.3941 65.8979 37.7552 66.0714 39.1071 66.0714C39.372 66.0714 39.6415 66.0668 39.9064 66.0486L41.5689 66.0029C44.2499 65.9298 47.0178 65.8568 49.8221 65.6512C50.3793 65.6512 50.7859 65.7928 51.0645 66.0851C51.6399 66.6926 51.576 67.8801 51.5121 69.0265C51.4709 69.8075 51.4299 70.5474 51.5806 71.1092C51.6719 71.5568 51.8181 71.9953 51.9596 72.4292C52.2017 73.1691 52.4529 73.9364 52.4301 74.786C52.4621 75.5898 52.22 76.3069 51.7404 76.8047C51.3248 77.2386 50.7584 77.4716 50.1053 77.4716H49.95C49.1827 77.4031 48.3925 77.3391 47.6161 77.3391C45.7846 77.3391 44.4692 77.7091 43.3547 78.5312C42.9802 78.7641 42.5828 79.029 42.1718 79.3076C40.5641 80.3901 38.7463 81.6142 36.9969 81.6142C36.1337 81.6142 35.3756 81.3173 34.6767 80.7098L34.6722 80.7053ZM36.1429 71.4609C35.9373 72.4246 36.0013 73.4705 36.0561 74.3064C36.0926 75.4482 36.6224 76.0557 37.6912 76.0557H37.8191C38.3809 76.0557 38.7828 75.9141 39.0386 75.6218C39.4999 75.1057 39.3994 74.2287 39.2989 73.3838L39.2761 73.1828C39.0934 72.178 38.8559 71.1366 38.1342 70.4196C37.9013 70.2003 37.6547 70.0907 37.3989 70.0907C36.7549 70.0907 36.2525 70.7895 36.1429 71.4609Z" fill="#A9DBD3"/>
</svg>
